<?xml version="1.0" standalone="no"?>
<!DOCTYPE svg PUBLIC "-//W3C//DTD SVG 20010904//EN"
 "http://www.w3.org/TR/2001/REC-SVG-20010904/DTD/svg10.dtd">
<svg version="1.0" xmlns="http://www.w3.org/2000/svg"
 width="500.000000pt" height="500.000000pt" viewBox="0 0 500.000000 500.000000"
 preserveAspectRatio="xMidYMid meet">
<metadata>
Created by potrace 1.11, written by Peter Selinger 2001-2013
</metadata>
<g transform="translate(0.000000,500.000000) scale(0.100000,-0.100000)"
fill="#000000" stroke="none">
<path d="M671 4880 c-4 -3 -6 -518 -5 -1145 2 -1089 7 -1478 19 -1555 2 -19 7
-57 11 -85 6 -53 37 -215 53 -275 85 -321 232 -622 421 -860 19 -24 44 -56 55
-70 56 -70 233 -235 335 -311 184 -138 296 -205 575 -345 183 -92 183 -92 25
36 -264 213 -440 384 -606 589 -10 13 -23 28 -29 35 -99 112 -269 396 -358
596 -49 110 -115 315 -136 425 -6 28 -13 61 -16 75 -5 28 -15 100 -21 170 -4
41 -12 1033 -16 1990 -1 409 0 414 68 466 l37 29 1376 1 c757 1 1400 4 1429 8
66 8 142 45 182 89 44 49 100 130 94 136 -7 7 -3483 8 -3493 1z"/>
<path d="M4305 4770 c-8 -16 -15 -36 -15 -44 0 -8 -3 -16 -7 -18 -5 -1 -21
-28 -37 -58 -45 -85 -119 -191 -200 -288 -74 -88 -266 -278 -346 -342 -24 -19
-75 -61 -114 -93 -39 -31 -75 -61 -81 -65 -58 -46 -448 -322 -455 -322 -4 0
-10 -4 -12 -8 -1 -4 -66 -55 -143 -112 -77 -57 -142 -106 -145 -110 -3 -3 -23
-19 -45 -36 -42 -31 -44 -33 -170 -140 -157 -133 -367 -354 -462 -485 -145
-198 -264 -462 -299 -659 -2 -14 -7 -41 -10 -60 -11 -61 -14 -121 -14 -255 0
-139 1 -148 20 -270 16 -106 17 -109 36 -174 10 -31 18 -60 20 -66 13 -58 64
-185 121 -300 121 -245 253 -428 466 -649 80 -83 91 -89 67 -31 -15 33 -62
188 -67 219 -2 16 -9 41 -14 55 -6 14 -13 44 -16 66 -3 22 -9 47 -13 55 -9 16
-15 53 -26 145 -3 33 -8 69 -10 80 -5 24 -16 223 -16 280 0 49 12 204 17 225
5 19 16 113 20 167 4 53 -11 119 -34 152 -84 119 -163 321 -163 421 -1 82 10
181 27 236 7 24 10 45 7 48 -3 4 1 6 8 6 7 0 11 3 7 6 -9 9 39 110 85 178 79
118 209 223 346 280 98 41 227 69 286 61 28 -4 69 -9 91 -12 61 -8 105 -8 155
1 83 15 87 19 295 241 72 76 139 148 150 159 18 19 159 175 239 266 17 19 55
64 84 100 29 36 60 74 69 84 101 122 182 266 231 411 31 90 85 336 85 388 1
15 4 27 7 27 4 0 7 61 6 135 0 74 -4 135 -8 135 -4 0 -14 -13 -23 -30z"/>
<path d="M1249 4400 c0 -3 -2 -119 -2 -258 l-2 -252 30 -1 c17 0 42 -2 57 -3
15 -1 29 3 31 9 3 9 1 479 -2 497 -1 7 -111 15 -112 8z"/>
<path d="M1455 4400 c-8 -12 -10 -499 -2 -506 3 -3 28 -7 56 -8 l51 -2 0 149
c0 114 3 148 13 145 6 -3 40 -40 74 -84 120 -152 195 -213 261 -214 l22 0 0
260 c0 201 -3 260 -12 261 -36 3 -90 0 -96 -5 -3 -4 -7 -64 -9 -134 -3 -136
-6 -161 -15 -165 -4 -1 -42 46 -86 104 -84 111 -125 151 -193 187 -46 25 -55
26 -64 12z"/>
<path d="M2115 4398 c-38 -5 -74 -13 -79 -18 -6 -6 -12 -108 -14 -250 l-4
-240 46 -1 c120 -3 145 -2 194 5 91 12 148 54 185 136 37 83 29 187 -22 265
-30 47 -113 93 -181 101 -24 3 -46 6 -49 8 -4 1 -37 -1 -76 -6z m178 -141 c39
-30 63 -97 52 -147 -15 -66 -112 -137 -176 -128 -24 3 -24 4 -27 151 -3 145
-3 147 19 155 33 13 94 -2 132 -31z"/>
<path d="M2570 4401 l-35 -6 -1 -252 c-1 -180 2 -253 10 -254 56 -5 96 -2 99
6 6 20 0 495 -7 502 -9 9 -25 10 -66 4z"/>
<path d="M3010 4398 c-93 -19 -98 -23 -135 -99 -18 -38 -32 -69 -30 -69 3 0
-5 -21 -16 -47 -12 -27 -36 -89 -54 -139 -18 -51 -41 -106 -49 -123 l-17 -31
43 -1 c81 -2 107 10 108 54 0 21 -9 19 132 22 l117 2 20 -41 19 -41 61 3 61 4
-16 36 c-17 40 -58 144 -59 152 -1 3 -6 16 -12 30 -6 14 -26 63 -43 110 -62
164 -72 190 -79 189 -3 -1 -26 -5 -51 -11z m3 -170 c8 -18 23 -53 32 -78 9
-25 19 -51 22 -58 4 -9 -13 -12 -73 -9 -63 2 -78 5 -76 17 3 15 75 160 79 160
1 0 9 -15 16 -32z"/>
<path d="M4312 3352 c-34 -157 -62 -231 -134 -357 -75 -131 -136 -231 -150
-250 -5 -5 -32 -41 -61 -80 -28 -38 -59 -77 -67 -85 -8 -9 -44 -48 -80 -86
-36 -38 -81 -92 -100 -119 l-35 -50 -1 -197 c-1 -175 -4 -201 -22 -240 -11
-23 -36 -77 -55 -119 -66 -147 -130 -217 -297 -329 -133 -89 -142 -92 -311
-104 -88 -7 -130 -17 -185 -43 -48 -23 -54 -31 -94 -111 -63 -130 -83 -179
-94 -238 -2 -11 -9 -39 -16 -62 -6 -24 -13 -58 -15 -75 -3 -18 -7 -52 -11 -77
-15 -116 -5 -343 22 -460 3 -14 8 -38 11 -54 10 -64 17 -69 38 -29 65 126 313
449 584 763 166 192 180 207 221 250 269 278 464 511 529 630 76 139 147 303
171 395 5 17 20 71 33 120 14 50 32 126 41 170 9 44 19 91 22 105 3 14 7 39 9
55 3 17 7 46 11 65 3 19 7 49 9 65 2 17 8 59 13 95 6 36 10 72 10 80 0 8 3 35
7 60 3 25 8 63 9 85 2 22 4 40 6 40 6 0 7 226 0 230 -4 2 -12 -17 -18 -43z"/>
<path d="M2796 2743 c-2 -3 -23 -9 -45 -14 -183 -41 -365 -206 -436 -394 -33
-88 -38 -117 -38 -250 0 -109 3 -127 30 -201 84 -223 243 -363 482 -424 48
-13 184 -15 241 -5 190 34 363 152 455 309 26 44 62 132 69 168 3 13 8 34 11
48 4 14 7 66 7 115 2 377 -280 655 -661 653 -61 0 -112 -2 -115 -5z"/>
</g>
</svg>
